<?xml version="1.0" standalone="no"?>
<!DOCTYPE svg PUBLIC "-//W3C//DTD SVG 20010904//EN"
 "http://www.w3.org/TR/2001/REC-SVG-20010904/DTD/svg10.dtd">
<svg version="1.0" xmlns="http://www.w3.org/2000/svg"
 width="912.000000pt" height="1280.000000pt" viewBox="0 0 912.000000 1280.000000"
 preserveAspectRatio="xMidYMid meet">
<g transform="translate(0.000000,1280.000000) scale(0.100000,-0.100000)"
fill="#000000" stroke="none">
<path d="M4520 12790 c-30 -5 -109 -14 -175 -20 -558 -54 -1123 -257 -1595
-573 -818 -547 -1377 -1404 -1540 -2360 -48 -283 -50 -351 -50 -1511 0 -836
-3 -1095 -12 -1104 -9 -9 -124 -12 -455 -12 l-443 0 0 -3539 c0 -3218 1 -3539
16 -3545 9 -3 2004 -6 4435 -6 l4419 0 0 3545 0 3545 -422 2 -423 3 -6 1155
c-5 1109 -7 1161 -27 1305 -93 656 -312 1193 -692 1700 -588 783 -1494 1296
-2465 1395 -60 6 -146 15 -189 21 -92 11 -297 10 -376 -1z m525 -1409 c487
-81 905 -300 1238 -651 318 -334 508 -724 584 -1200 17 -107 18 -196 18 -1215
l0 -1100 -2170 0 -2170 0 -3 1065 c-2 757 0 1097 9 1174 95 904 741 1656 1614
1881 118 31 276 58 395 69 98 9 369 -4 485 -23z"/>
</g>
</svg>
